Coordinates
version=1
nRows=37
nColumns=19
inDegrees=yes

Units are S.I. units (second, meters, Newtons, ...)
If the header above contains a line with 'inDegrees', this indicates whether rotational values are in degrees (yes) or radians (no).

endheader
time	pelvis_tilt	pelvis_list	pelvis_rotation	pelvis_tx	pelvis_ty	pelvis_tz	hip_flexion_r	hip_adduction_r	hip_rotation_r	knee_angle_r	knee_angle_r_beta	ankle_angle_r	hip_flexion_l	hip_adduction_l	hip_rotation_l	knee_angle_l	knee_angle_l_beta	ankle_angle_l
     15.30000000	     -4.18261103	     -5.36911712	      2.02240665	      2.27732895	      1.00851755	      1.07472432	     23.89776486	      5.99161465	     -6.66064492	     14.16471616	      0.24722093	      2.28055323	     -8.71648285	     -5.37248507	      0.42580044	     49.18864753	      0.85850385	    -16.80419314
     15.30666667	     -3.19847608	     -5.74415645	      1.80266535	      2.27741431	      1.00522655	      1.07533743	     23.12119163	      6.33635103	     -7.20245814	     16.19451477	      0.28264760	      2.13022175	     -8.80262458	     -5.79375266	      0.23573122	     52.34857194	      0.91365494	    -16.00118391
     15.31333333	     -3.13462946	     -5.95454353	      1.67265457	      2.27711915	      1.00048215	      1.07603477	     23.61857574	      6.36560430	     -7.91670956	     18.88706422	      0.32964146	      2.32939708	     -7.64224976	     -6.09548971	      0.20365215	     55.81218007	      0.97410630	    -15.29517540
     15.32000000	     -2.19045849	     -6.41095114	      1.45171097	      2.27702688	      0.99652064	      1.07692690	     23.01851022	      6.79199708	     -8.37309177	     21.35460140	      0.37270810	      2.65838905	     -7.57796145	     -6.81671774	     -0.30981670	     58.98287708	      1.02944541	    -14.52173296
     15.32666667	     -2.17543970	     -6.66335692	      1.21758664	      2.27656504	      0.99122286	      1.07799541	     23.64677563	      6.92117501	     -8.81912125	     24.33364874	      0.42470229	      3.37144083	     -6.30395498	     -7.33896082	     -0.64862477	     62.37151755	      1.08858834	    -13.75108261
     15.33333333	     -1.77015197	     -7.04785066	      0.95366903	      2.27609156	      0.98624733	      1.07918729	     23.76746913	      7.26060489	     -9.13072611	     27.16916274	      0.47419134	      4.34379814	     -5.48785981	     -8.13714919	     -1.21778985	     65.59861211	      1.14491177	    -12.94630142
     15.34000000	     -0.89527336	     -7.58396548	      0.72307121	      2.27557099	      0.98180527	      1.08040640	     23.27347795	      7.82192030	     -9.33447829	     29.81916903	      0.52044268	      5.62391020	     -5.21065068	     -9.18571328	     -1.86255505	     68.62957918	      1.19781212	    -12.12273264
     15.34666667	     -1.05487402	     -7.85499678	      0.42329580	      2.27462936	      0.97611845	      1.08172734	     24.01952882	      8.06030204	     -9.43948597	     32.72980309	      0.57124283	      7.12020598	     -3.61001415	     -9.92370624	     -2.26062187	     71.82364373	      1.25355906	    -11.18951393
     15.35333333	     -0.24354941	     -8.33697175	      0.22248036	      2.27371469	      0.97176113	      1.08294358	     23.46008971	      8.60517762	     -9.47815370	     35.16458693	      0.61373782	      8.88270786	     -3.14669752	    -10.97434581	     -2.76583652	     74.66850176	      1.30321120	    -10.28755990
     15.36000000	     -0.51598511	     -8.61714093	     -0.05338707	      2.27238254	      0.96623576	      1.08417437	     24.11615845	      8.92256247	     -9.40392733	     37.68502805	      0.65772782	     10.67422714	     -1.28713328	    -11.72474378	     -2.93840454	     77.65266727	      1.35529472	     -9.27104112
     15.36666667	      0.19947697	     -8.99570122	     -0.20464451	      2.27107631	      0.96223459	      1.08519011	     23.41996210	      9.39385556	     -9.28450618	     39.70799279	      0.69303521	     12.59530722	     -0.56878670	    -12.62674561	     -3.18319348	     80.24731806	      1.40057992	     -8.29787138
     15.37333333	     -0.08893119	     -9.25150793	     -0.35294768	      2.26935042	      0.95733342	      1.08609734	     23.77195452	      9.70333409	     -9.17183550	     41.63314391	      0.72663544	     14.39515346	      1.49845422	    -13.28781217	     -3.01363112	     82.93650308	      1.44751505	     -7.27002042
     15.38000000	      0.44752129	     -9.53123996	     -0.45081822	      2.26765789	      0.95385162	      1.08679797	     22.96214712	     10.09154598	     -8.95011008	     43.10320428	      0.75229283	     16.19488592	      2.58656203	    -13.95376393	     -2.94456441	     85.21732529	      1.48732291	     -6.28606321
     15.38666667	      0.78997037	     -9.75294908	     -0.48847142	      2.26576434	      0.95054629	      1.08745641	     22.22157077	     10.40350227	     -8.77635539	     44.31653464	      0.77346944	     17.91901393	      4.01830869	    -14.52758214	     -2.70116141	     87.36429726	      1.52479464	     -5.34612728
     15.39333333	      0.49285739	     -9.88278575	     -0.38386623	      2.26366139	      0.94700430	      1.08782022	     22.06621600	     10.53259049	     -8.77882235	     45.31163917	      0.79083729	     19.34397689	      6.39127873	    -14.89130617	     -2.06453578	     89.44471165	      1.56110472	     -4.57440032
     15.40000000	      1.02785646	     -9.89574551	     -0.47919177	      2.26155471	      0.94502017	      1.08833003	     20.80528894	     10.70259799	     -8.32963607	     45.99779046	      0.80281289	     20.60658468	      7.64137770	    -15.10388854	     -1.84127085	     91.01810775	      1.58856566	     -3.96970857
     15.40666667	      1.41999069	     -9.90179518	     -0.47919051	      2.25949673	      0.94334040	      1.08868832	     19.53715664	     10.81672980	     -8.01926592	     46.39654542	      0.80977248	     21.88503228	      9.11041697	    -15.27857502	     -1.50371964	     92.38582590	      1.61243684	     -3.23491784
     15.41333333	      1.07091513	    -10.00701173	     -0.05742771	      2.25763244	      0.94136110	      1.08857020	     18.91445953	     10.80299799	     -8.42441147	     46.44636581	      0.81064201	     22.91098287	     11.69738739	    -15.43730247	     -0.52827716	     93.68817204	      1.63516707	     -2.51608676
     15.42000000	      1.36630677	     -9.82747355	     -0.14931379	      2.25568481	      0.94083127	      1.08893205	     17.49663415	     10.77772423	     -7.91130800	     46.41117276	      0.81002777	     23.70063312	     13.19708062	    -15.32604807	     -0.33914749	     94.43148981	      1.64814041	     -2.00332585
     15.42666667	      1.50164641	     -9.81700923	      0.17545194	      2.25416353	      0.94069850	      1.08889963	     16.02821615	     10.75608829	     -8.03432372	     45.91587877	      0.80138326	     24.40497331	     15.01531057	    -15.30941403	      0.29693982	     94.96483709	      1.65744908	     -1.41945887
     15.43333333	      1.56602764	     -9.53700529	      0.05113405	      2.25261367	      0.94111574	      1.08926891	     14.60627408	     10.61324776	     -7.53181853	     45.44020349	      0.79308116	     25.00037806	     16.63460341	    -15.05491538	      0.34783667	     95.10483693	      1.65989254	     -0.91010477
     15.44000000	      1.52837650	     -9.23733239	     -0.07329269	      2.25131580	      0.94208513	      1.08959232	     13.16669769	     10.42577082	     -7.06492872	     44.72530657	      0.78060386	     25.35669418	     18.27731258	    -14.75600861	      0.34511859	     94.93082649	      1.65685548	     -0.44667505
     15.44666667	      1.45418842	     -8.93627906	     -0.15455215	      2.25023780	      0.94362842	      1.08984483	     11.64901750	     10.25737611	     -6.54304655	     43.76996111	      0.76392993	     25.57262876	     19.87169254	    -14.43927230	      0.31192036	     94.44340703	      1.64834841	      0.00250701
     15.45333333	      1.31027882	     -8.58645018	     -0.32427546	      2.24936922	      0.94572521	      1.09005471	     10.10735214	     10.03702306	     -5.91945079	     42.63458967	      0.74411396	     25.56422852	     21.38957085	    -14.06418746	      0.11787353	     93.64094234	      1.63434276	      0.42071722
     15.46000000	      1.05947250	     -8.16983493	     -0.57228164	      2.24881649	      0.94830956	      1.09031320	      8.58927485	      9.74847232	     -5.20790515	     41.32632460	      0.72128043	     25.34823224	     22.84439253	    -13.63345051	     -0.23079243	     92.50441389	      1.61450660	      0.82726216
     15.46666667	      1.80275599	     -7.77603414	     -0.96647985	      2.24876221	      0.95272621	      1.09076945	      5.74908242	      9.51044593	     -4.15645090	     39.57443374	      0.69070417	     24.89397609	     22.82017787	    -13.46528002	     -1.11475469	     90.86076686	      1.58581954	      1.29077125
     15.47333333	      1.71885769	     -7.23979789	     -1.31616750	      2.24878053	      0.95659268	      1.09092560	      3.86509227	      9.03707725	     -3.31137124	     37.88733486	      0.66125874	     24.20896908	     23.70825648	    -12.94834774	     -1.79738907	     89.06628394	      1.55449991	      1.68024174
     15.48000000	      1.27439313	     -6.72320110	     -1.70853274	      2.24899831	      0.96044230	      1.09104513	      2.35244081	      8.56932855	     -2.46542772	     36.11983057	      0.63040997	     23.24354594	     24.89740218	    -12.46282502	     -2.50553213	     87.06610364	      1.51959018	      1.97372828
     15.48666667	      1.41141260	     -6.17480317	     -2.09814180	      2.24960786	      0.96534525	      1.09105558	      0.08285677	      8.00068975	     -1.61514313	     34.07366795	      0.59469769	     21.97752171	     25.18628666	    -11.96282937	     -3.39894120	     84.69303121	      1.47817225	      2.41283009
     15.49333333	      1.24274032	     -5.58483827	     -2.40505774	      2.25036847	      0.97010576	      1.09088382	     -1.82202325	      7.34618574	     -0.96504197	     32.02218104	      0.55889249	     20.44562707	     25.75491558	    -11.33888964	     -4.18662951	     82.13574338	      1.43353916	      2.79200784
     15.50000000	      0.98943843	     -5.02552743	     -2.69373186	      2.25129576	      0.97494296	      1.09060793	     -3.64051712	      6.70111000	     -0.38394954	     29.88931838	      0.52166702	     18.61073339	     26.30872775	    -10.74138956	     -4.97802336	     79.37796279	      1.38540680	      3.10565278
     15.50666667	      0.76694547	     -4.42422230	     -2.91521285	      2.25237380	      0.97987392	      1.09016077	     -5.45926232	      5.97240250	      0.01901422	     27.74818258	      0.48429715	     16.53970887	     26.72049448	    -10.05301569	     -5.75345563	     76.40950690	      1.33359748	      3.42073303
     15.51333333	     -0.33452307	     -3.86720362	     -3.13353242	      2.25333117	      0.98367575	      1.08961731	     -6.07794685	      5.30856891	      0.21960097	     26.01532276	      0.45405304	     14.29969172	     28.11635928	     -9.38899150	     -6.37635694	     73.41003924	      1.28124689	      3.65969867
     15.52000000	      0.04493383	     -3.23288446	     -3.12180089	      2.25469366	      0.98931302	      1.08882900	     -8.60217176	      4.51345205	      0.34186310	     23.61164336	      0.41210092	     11.76985106	     27.63939845	     -8.53109355	     -7.09160106	     69.98717398	      1.22150662	      3.88115685
     15.52666667	     -0.29599290	     -2.60121649	     -3.19804145	      2.25589045	      0.99390754	      1.08804148	    -10.06740332	      3.73146831	      0.36764011	     21.67709333	      0.37833665	      9.19510920	     27.92322254	     -7.70547568	     -7.79125480	     66.50740919	      1.16077327	      4.01111926
     15.53333333	     -0.82176158	     -2.01655257	     -3.15183457	      2.25688156	      0.99808982	      1.08697736	    -11.15076349	      3.01730785	      0.18580353	     20.01927841	      0.34940232	      6.50056888	     28.40114514	     -6.79155354	     -8.24303691	     62.93105311	      1.09835408	      4.08344447
     15.54000000	     -1.96236784	     -1.55713673	     -3.19249950	      2.25765959	      1.00128972	      1.08592626	    -11.26939896	      2.43285271	     -0.05083212	     18.88201296	      0.32955330	      3.83184337	     29.53282970	     -6.05916561	     -8.66058570	     59.36391442	      1.03609576	      4.10168447
